<svg xmlns="http://www.w3.org/2000/svg" xmlns:xlink="http://www.w3.org/1999/xlink" width="500" zoomAndPan="magnify" viewBox="0 0 375 225" height="300" preserveAspectRatio="xMidYMid meet" version="1.0"><defs><g/><clipPath id="d80c03905c"><path d="M 0.238281 0.480469 L 273.121094 0.480469 L 273.121094 165.601562 L 0.238281 165.601562 Z M 0.238281 0.480469 " clip-rule="nonzero"/></clipPath><clipPath id="f23b218bfe"><rect x="0" width="274" y="0" height="166"/></clipPath><clipPath id="2c99f4b8c6"><path d="M 130.984375 20.074219 L 173.121094 20.074219 L 173.121094 62.210938 L 130.984375 62.210938 Z M 130.984375 20.074219 " clip-rule="nonzero"/></clipPath><clipPath id="8a3b887fec"><path d="M 153.566406 50.898438 L 165.472656 50.898438 L 165.472656 62.804688 L 153.566406 62.804688 Z M 153.566406 50.898438 " clip-rule="nonzero"/></clipPath><clipPath id="7666a68b46"><rect x="0" width="274" y="0" height="166"/></clipPath></defs><g transform="matrix(1, 0, 0, 1, 48, 18)"><g clip-path="url(#7666a68b46)"><g clip-path="url(#d80c03905c)"><g transform="matrix(1, 0, 0, 1, 0, -0.000000000000007105)"><g clip-path="url(#f23b218bfe)"><g fill="#93b6b4" fill-opacity="1"><g transform="translate(0.714565, 137.425981)"><g><path d="M 36.671875 -70.734375 C 43.109375 -70.734375 48.1875 -68.6875 51.90625 -64.59375 C 55.632812 -60.5 57.5 -54.914062 57.5 -47.84375 L 57.5 -1.375 C 57.5 -0.457031 57.035156 0 56.109375 0 L 49.078125 0 C 48.160156 0 47.703125 -0.457031 47.703125 -1.375 L 47.703125 -46.46875 C 47.703125 -51.25 46.460938 -55.0625 43.984375 -57.90625 C 41.503906 -60.757812 38.101562 -62.1875 33.78125 -62.1875 C 29.457031 -62.1875 25.984375 -60.738281 23.359375 -57.84375 C 20.742188 -54.945312 19.4375 -51.0625 19.4375 -46.1875 L 19.4375 -1.375 C 19.4375 -0.457031 18.976562 0 18.0625 0 L 11.03125 0 C 10.113281 0 9.65625 -0.457031 9.65625 -1.375 L 9.65625 -68.390625 C 9.65625 -69.304688 10.113281 -69.765625 11.03125 -69.765625 L 18.0625 -69.765625 C 18.976562 -69.765625 19.4375 -69.304688 19.4375 -68.390625 L 19.4375 -63.015625 C 19.4375 -62.828125 19.503906 -62.6875 19.640625 -62.59375 C 19.785156 -62.5 19.945312 -62.546875 20.125 -62.734375 C 23.707031 -68.066406 29.222656 -70.734375 36.671875 -70.734375 Z M 36.671875 -70.734375 "/></g></g></g><g fill="#1b6391" fill-opacity="1"><g transform="translate(56.834017, 137.425981)"><g><path d="M 31.984375 -70.875 C 39.335938 -70.875 45.101562 -68.757812 49.28125 -64.53125 C 53.46875 -60.300781 55.5625 -54.691406 55.5625 -47.703125 L 55.5625 -1.375 C 55.5625 -0.457031 55.101562 0 54.1875 0 L 47.15625 0 C 46.238281 0 45.78125 -0.457031 45.78125 -1.375 L 45.78125 -6.34375 C 45.78125 -6.53125 45.707031 -6.664062 45.5625 -6.75 C 45.425781 -6.84375 45.265625 -6.800781 45.078125 -6.625 C 43.054688 -4.039062 40.484375 -2.101562 37.359375 -0.8125 C 34.234375 0.46875 30.742188 1.109375 26.890625 1.109375 C 21.097656 1.109375 16.15625 -0.453125 12.0625 -3.578125 C 7.96875 -6.703125 5.921875 -11.804688 5.921875 -18.890625 C 5.921875 -26.242188 8.285156 -31.828125 13.015625 -35.640625 C 17.753906 -39.453125 24.21875 -41.359375 32.40625 -41.359375 L 45.21875 -41.359375 C 45.59375 -41.359375 45.78125 -41.539062 45.78125 -41.90625 L 45.78125 -47.15625 C 45.78125 -51.84375 44.609375 -55.539062 42.265625 -58.25 C 39.921875 -60.957031 36.445312 -62.3125 31.84375 -62.3125 C 28.257812 -62.3125 25.269531 -61.414062 22.875 -59.625 C 20.488281 -57.832031 19.066406 -55.46875 18.609375 -52.53125 C 18.515625 -51.707031 18.007812 -51.296875 17.09375 -51.296875 L 9.515625 -51.703125 C 9.054688 -51.703125 8.710938 -51.835938 8.484375 -52.109375 C 8.253906 -52.390625 8.179688 -52.710938 8.265625 -53.078125 C 8.910156 -58.410156 11.414062 -62.707031 15.78125 -65.96875 C 20.144531 -69.238281 25.546875 -70.875 31.984375 -70.875 Z M 28.8125 -7.4375 C 33.40625 -7.4375 37.378906 -8.703125 40.734375 -11.234375 C 44.097656 -13.765625 45.78125 -17.28125 45.78125 -21.78125 L 45.78125 -32.953125 C 45.78125 -33.316406 45.59375 -33.5 45.21875 -33.5 L 33.09375 -33.5 C 27.851562 -33.5 23.671875 -32.28125 20.546875 -29.84375 C 17.421875 -27.414062 15.859375 -23.945312 15.859375 -19.4375 C 15.859375 -15.394531 17.050781 -12.382812 19.4375 -10.40625 C 21.832031 -8.425781 24.957031 -7.4375 28.8125 -7.4375 Z M 28.8125 -7.4375 "/></g></g></g><g fill="#93b6b4" fill-opacity="1"><g transform="translate(110.186799, 137.425981)"><g><path d="M 37.640625 -63.421875 C 37.640625 -62.503906 37.179688 -62.046875 36.265625 -62.046875 L 23.15625 -62.046875 C 22.789062 -62.046875 22.609375 -61.863281 22.609375 -61.5 L 22.609375 -20.125 C 22.609375 -15.8125 23.457031 -12.800781 25.15625 -11.09375 C 26.863281 -9.394531 29.597656 -8.546875 33.359375 -8.546875 L 35.703125 -8.546875 C 36.628906 -8.546875 37.09375 -8.085938 37.09375 -7.171875 L 37.09375 -1.375 C 37.09375 -0.457031 36.628906 0 35.703125 0 L 31.4375 0.140625 C 25.457031 0.140625 20.90625 -1.078125 17.78125 -3.515625 C 14.65625 -5.953125 13.09375 -10.476562 13.09375 -17.09375 L 13.09375 -61.5 C 13.09375 -61.863281 12.910156 -62.046875 12.546875 -62.046875 L 5.65625 -62.046875 C 4.738281 -62.046875 4.28125 -62.503906 4.28125 -63.421875 L 4.28125 -68.390625 C 4.28125 -69.304688 4.738281 -69.765625 5.65625 -69.765625 L 12.546875 -69.765625 C 12.910156 -69.765625 13.09375 -69.945312 13.09375 -70.3125 L 13.09375 -86.03125 C 13.09375 -86.945312 13.554688 -87.40625 14.484375 -87.40625 L 21.234375 -87.40625 C 22.148438 -87.40625 22.609375 -86.945312 22.609375 -86.03125 L 22.609375 -70.3125 C 22.609375 -69.945312 22.789062 -69.765625 23.15625 -69.765625 L 36.265625 -69.765625 C 37.179688 -69.765625 37.640625 -69.304688 37.640625 -68.390625 Z M 37.640625 -63.421875 "/></g></g></g><g fill="#1b6391" fill-opacity="1"><g transform="translate(143.276835, 137.425981)"><g><path d="M 16 -82.453125 C 13.695312 -82.453125 11.832031 -83.1875 10.40625 -84.65625 C 8.976562 -86.125 8.265625 -87.960938 8.265625 -90.171875 C 8.265625 -92.460938 8.976562 -94.320312 10.40625 -95.75 C 11.832031 -97.175781 13.695312 -97.890625 16 -97.890625 C 18.195312 -97.890625 20.03125 -97.175781 21.5 -95.75 C 22.976562 -94.320312 23.71875 -92.460938 23.71875 -90.171875 C 23.71875 -87.960938 22.976562 -86.125 21.5 -84.65625 C 20.03125 -83.1875 18.195312 -82.453125 16 -82.453125 Z M 12.265625 0 C 11.347656 0 10.890625 -0.457031 10.890625 -1.375 L 10.890625 -68.390625 C 10.890625 -69.304688 11.347656 -69.765625 12.265625 -69.765625 L 19.296875 -69.765625 C 20.222656 -69.765625 20.6875 -69.304688 20.6875 -68.390625 L 20.6875 -1.375 C 20.6875 -0.457031 20.222656 0 19.296875 0 Z M 12.265625 0 "/></g></g></g><g fill="#93b6b4" fill-opacity="1"><g transform="translate(164.922914, 137.425981)"><g><path d="M 25.5 0 C 24.769531 0 24.265625 -0.367188 23.984375 -1.109375 L 4 -68.25 L 3.859375 -68.65625 C 3.859375 -69.394531 4.316406 -69.765625 5.234375 -69.765625 L 12.953125 -69.765625 C 13.785156 -69.765625 14.296875 -69.351562 14.484375 -68.53125 L 29.09375 -14.75 C 29.1875 -14.570312 29.300781 -14.484375 29.4375 -14.484375 C 29.570312 -14.484375 29.6875 -14.570312 29.78125 -14.75 L 44.265625 -68.53125 C 44.441406 -69.351562 44.945312 -69.765625 45.78125 -69.765625 L 53.640625 -69.625 C 54.097656 -69.625 54.441406 -69.484375 54.671875 -69.203125 C 54.898438 -68.929688 54.96875 -68.566406 54.875 -68.109375 L 35.015625 -1.109375 C 34.742188 -0.367188 34.238281 0 33.5 0 Z M 25.5 0 "/></g></g></g><g fill="#93b6b4" fill-opacity="1"><g transform="translate(213.449288, 137.425981)"><g><path d="M 33.234375 -7.4375 C 36.722656 -7.4375 39.726562 -8.332031 42.25 -10.125 C 44.78125 -11.925781 46.597656 -14.34375 47.703125 -17.375 C 47.984375 -18.195312 48.535156 -18.519531 49.359375 -18.34375 L 55.703125 -17.09375 C 56.160156 -17 56.457031 -16.789062 56.59375 -16.46875 C 56.726562 -16.15625 56.753906 -15.8125 56.671875 -15.4375 C 55.109375 -10.289062 52.253906 -6.242188 48.109375 -3.296875 C 43.972656 -0.359375 38.96875 1.109375 33.09375 1.109375 C 26.382812 1.109375 20.914062 -0.660156 16.6875 -4.203125 C 12.457031 -7.742188 9.835938 -12.546875 8.828125 -18.609375 C 8.453125 -20.910156 8.21875 -23.625 8.125 -26.75 C 8.039062 -29.875 8 -32.46875 8 -34.53125 C 8 -36.601562 8 -38.050781 8 -38.875 C 8 -43.5625 8.179688 -47.378906 8.546875 -50.328125 C 9.285156 -56.484375 11.835938 -61.445312 16.203125 -65.21875 C 20.566406 -68.988281 26.054688 -70.875 32.671875 -70.875 C 39.753906 -70.875 45.5 -68.847656 49.90625 -64.796875 C 54.320312 -60.753906 56.804688 -55.425781 57.359375 -48.8125 C 57.628906 -45.78125 57.765625 -40.21875 57.765625 -32.125 C 57.765625 -31.207031 57.304688 -30.75 56.390625 -30.75 L 18.34375 -30.75 C 17.96875 -30.75 17.78125 -30.5625 17.78125 -30.1875 C 17.78125 -27.34375 17.875 -24.175781 18.0625 -20.6875 C 18.519531 -16.726562 20.101562 -13.53125 22.8125 -11.09375 C 25.53125 -8.65625 29.003906 -7.4375 33.234375 -7.4375 Z M 32.8125 -62.3125 C 28.675781 -62.3125 25.296875 -61.09375 22.671875 -58.65625 C 20.054688 -56.226562 18.519531 -53.035156 18.0625 -49.078125 C 17.875 -45.222656 17.78125 -42.007812 17.78125 -39.4375 C 17.78125 -39.0625 17.96875 -38.875 18.34375 -38.875 L 47.421875 -38.875 C 47.796875 -38.875 47.984375 -39.0625 47.984375 -39.4375 C 47.984375 -42.101562 47.796875 -45.273438 47.421875 -48.953125 C 46.960938 -52.898438 45.421875 -56.113281 42.796875 -58.59375 C 40.179688 -61.070312 36.851562 -62.3125 32.8125 -62.3125 Z M 32.8125 -62.3125 "/></g></g></g></g></g></g><g clip-path="url(#2c99f4b8c6)"><path fill="#ffffff" d="M 173.277344 41.21875 C 173.277344 41.914062 173.246094 42.605469 173.175781 43.292969 C 173.109375 43.980469 173.007812 44.667969 172.871094 45.347656 C 172.738281 46.023438 172.570312 46.695312 172.367188 47.359375 C 172.167969 48.023438 171.933594 48.671875 171.667969 49.3125 C 171.402344 49.953125 171.109375 50.578125 170.78125 51.1875 C 170.453125 51.800781 170.097656 52.394531 169.714844 52.96875 C 169.328125 53.542969 168.917969 54.101562 168.476562 54.636719 C 168.039062 55.171875 167.574219 55.683594 167.085938 56.171875 C 166.59375 56.664062 166.082031 57.128906 165.546875 57.566406 C 165.011719 58.007812 164.457031 58.417969 163.878906 58.804688 C 163.304688 59.1875 162.710938 59.542969 162.101562 59.871094 C 161.488281 60.195312 160.863281 60.492188 160.222656 60.757812 C 159.585938 61.023438 158.933594 61.253906 158.269531 61.457031 C 157.609375 61.65625 156.9375 61.824219 156.257812 61.960938 C 155.578125 62.097656 154.894531 62.199219 154.203125 62.265625 C 153.515625 62.332031 152.824219 62.367188 152.132812 62.367188 C 151.4375 62.367188 150.75 62.332031 150.058594 62.265625 C 149.371094 62.199219 148.683594 62.097656 148.007812 61.960938 C 147.328125 61.824219 146.65625 61.65625 145.992188 61.457031 C 145.332031 61.253906 144.679688 61.023438 144.039062 60.757812 C 143.398438 60.492188 142.773438 60.195312 142.164062 59.871094 C 141.550781 59.542969 140.957031 59.1875 140.382812 58.804688 C 139.808594 58.417969 139.25 58.007812 138.714844 57.566406 C 138.179688 57.128906 137.667969 56.664062 137.179688 56.171875 C 136.6875 55.683594 136.222656 55.171875 135.785156 54.636719 C 135.34375 54.101562 134.933594 53.542969 134.546875 52.96875 C 134.164062 52.394531 133.808594 51.800781 133.480469 51.1875 C 133.15625 50.578125 132.859375 49.953125 132.59375 49.3125 C 132.328125 48.671875 132.097656 48.023438 131.894531 47.359375 C 131.695312 46.695312 131.527344 46.023438 131.390625 45.347656 C 131.257812 44.667969 131.15625 43.980469 131.085938 43.292969 C 131.019531 42.605469 130.984375 41.914062 130.984375 41.21875 C 130.984375 40.527344 131.019531 39.835938 131.085938 39.148438 C 131.15625 38.457031 131.257812 37.773438 131.390625 37.09375 C 131.527344 36.414062 131.695312 35.746094 131.894531 35.082031 C 132.097656 34.417969 132.328125 33.765625 132.59375 33.128906 C 132.859375 32.488281 133.15625 31.863281 133.480469 31.25 C 133.808594 30.640625 134.164062 30.046875 134.546875 29.472656 C 134.933594 28.894531 135.34375 28.339844 135.785156 27.804688 C 136.222656 27.269531 136.6875 26.757812 137.179688 26.265625 C 137.667969 25.777344 138.179688 25.3125 138.714844 24.875 C 139.25 24.433594 139.808594 24.023438 140.382812 23.636719 C 140.957031 23.253906 141.550781 22.898438 142.164062 22.570312 C 142.773438 22.242188 143.398438 21.949219 144.039062 21.683594 C 144.679688 21.417969 145.332031 21.183594 145.992188 20.984375 C 146.65625 20.78125 147.328125 20.613281 148.007812 20.480469 C 148.683594 20.34375 149.371094 20.242188 150.058594 20.175781 C 150.75 20.105469 151.4375 20.074219 152.132812 20.074219 C 152.824219 20.074219 153.515625 20.105469 154.203125 20.175781 C 154.894531 20.242188 155.578125 20.34375 156.257812 20.480469 C 156.9375 20.613281 157.609375 20.78125 158.269531 20.984375 C 158.933594 21.183594 159.585938 21.417969 160.222656 21.683594 C 160.863281 21.949219 161.488281 22.242188 162.101562 22.570312 C 162.710938 22.898438 163.304688 23.253906 163.878906 23.636719 C 164.457031 24.023438 165.011719 24.433594 165.546875 24.875 C 166.082031 25.3125 166.59375 25.777344 167.085938 26.265625 C 167.574219 26.757812 168.039062 27.269531 168.476562 27.804688 C 168.917969 28.339844 169.328125 28.894531 169.714844 29.472656 C 170.097656 30.046875 170.453125 30.640625 170.78125 31.25 C 171.109375 31.863281 171.402344 32.488281 171.667969 33.128906 C 171.933594 33.765625 172.167969 34.417969 172.367188 35.082031 C 172.570312 35.746094 172.738281 36.414062 172.871094 37.09375 C 173.007812 37.773438 173.109375 38.457031 173.175781 39.148438 C 173.246094 39.835938 173.277344 40.527344 173.277344 41.21875 Z M 173.277344 41.21875 " fill-opacity="1" fill-rule="nonzero"/></g><g clip-path="url(#8a3b887fec)"><path fill="#1b6391" d="M 165.03125 56.628906 C 165.03125 57.003906 164.992188 57.378906 164.921875 57.746094 C 164.847656 58.117188 164.738281 58.476562 164.59375 58.824219 C 164.449219 59.171875 164.273438 59.5 164.066406 59.8125 C 163.855469 60.125 163.617188 60.414062 163.351562 60.683594 C 163.085938 60.949219 162.796875 61.1875 162.484375 61.394531 C 162.171875 61.605469 161.839844 61.78125 161.492188 61.925781 C 161.144531 62.070312 160.785156 62.175781 160.417969 62.25 C 160.046875 62.324219 159.675781 62.359375 159.296875 62.359375 C 158.921875 62.359375 158.550781 62.324219 158.179688 62.25 C 157.8125 62.175781 157.453125 62.070312 157.105469 61.925781 C 156.757812 61.78125 156.425781 61.605469 156.113281 61.394531 C 155.800781 61.1875 155.511719 60.949219 155.246094 60.683594 C 154.980469 60.414062 154.742188 60.125 154.53125 59.8125 C 154.324219 59.5 154.148438 59.171875 154.003906 58.824219 C 153.859375 58.476562 153.75 58.117188 153.675781 57.746094 C 153.601562 57.378906 153.566406 57.003906 153.566406 56.628906 C 153.566406 56.253906 153.601562 55.878906 153.675781 55.511719 C 153.75 55.140625 153.859375 54.78125 154.003906 54.433594 C 154.148438 54.085938 154.324219 53.757812 154.53125 53.445312 C 154.742188 53.132812 154.980469 52.839844 155.246094 52.574219 C 155.511719 52.308594 155.800781 52.070312 156.113281 51.863281 C 156.425781 51.652344 156.757812 51.476562 157.105469 51.332031 C 157.453125 51.1875 157.8125 51.082031 158.179688 51.007812 C 158.550781 50.933594 158.921875 50.898438 159.296875 50.898438 C 159.675781 50.898438 160.046875 50.933594 160.417969 51.007812 C 160.785156 51.082031 161.144531 51.1875 161.492188 51.332031 C 161.839844 51.476562 162.171875 51.652344 162.484375 51.863281 C 162.796875 52.070312 163.085938 52.308594 163.351562 52.574219 C 163.617188 52.839844 163.855469 53.132812 164.066406 53.445312 C 164.273438 53.757812 164.449219 54.085938 164.59375 54.433594 C 164.738281 54.78125 164.847656 55.140625 164.921875 55.511719 C 164.992188 55.878906 165.03125 56.253906 165.03125 56.628906 Z M 165.03125 56.628906 " fill-opacity="1" fill-rule="nonzero"/></g></g></g></svg>